<?xml version="1.0" encoding="UTF-8"?>
<svg width="500px" height="396px" viewBox="0 0 500 396" version="1.1" xmlns="http://www.w3.org/2000/svg" xmlns:xlink="http://www.w3.org/1999/xlink">
    <!-- Generator: Sketch 54.1 (76490) - https://sketchapp.com -->
    <title>bg_element-1</title>
    <desc>Created with Sketch.</desc>
    <defs>
        <linearGradient x1="0%" y1="100%" x2="98.0282545%" y2="100%" id="linearGradient-1">
            <stop stop-color="#5CBB9C" offset="0%"></stop>
            <stop stop-color="#293397" offset="100%"></stop>
        </linearGradient>
        <linearGradient x1="0%" y1="100%" x2="98.0282545%" y2="100%" id="linearGradient-2">
            <stop stop-color="#5CBB9C" offset="0%"></stop>
            <stop stop-color="#293397" offset="100%"></stop>
        </linearGradient>
        <linearGradient x1="0%" y1="100%" x2="98.0282545%" y2="100%" id="linearGradient-3">
            <stop stop-color="#5CBB9C" offset="0%"></stop>
            <stop stop-color="#293397" offset="100%"></stop>
        </linearGradient>
        <linearGradient x1="0%" y1="100%" x2="98.0282545%" y2="100%" id="linearGradient-4">
            <stop stop-color="#5CBB9C" offset="0%"></stop>
            <stop stop-color="#293397" offset="100%"></stop>
        </linearGradient>
        <linearGradient x1="0%" y1="100%" x2="98.0282545%" y2="100%" id="linearGradient-5">
            <stop stop-color="#5CBB9C" offset="0%"></stop>
            <stop stop-color="#293397" offset="100%"></stop>
        </linearGradient>
        <linearGradient x1="0%" y1="100%" x2="98.0282545%" y2="100%" id="linearGradient-6">
            <stop stop-color="#5CBB9C" offset="0%"></stop>
            <stop stop-color="#293397" offset="100%"></stop>
        </linearGradient>
        <linearGradient x1="0%" y1="100%" x2="98.0282545%" y2="100%" id="linearGradient-7">
            <stop stop-color="#5CBB9C" offset="0%"></stop>
            <stop stop-color="#293397" offset="100%"></stop>
        </linearGradient>
        <linearGradient x1="0%" y1="100%" x2="98.0282545%" y2="100%" id="linearGradient-8">
            <stop stop-color="#5CBB9C" offset="0%"></stop>
            <stop stop-color="#293397" offset="100%"></stop>
        </linearGradient>
    </defs>
    <g id=".io-Site" stroke="none" stroke-width="1" fill="none" fill-rule="evenodd" stroke-dasharray="1,4" stroke-linecap="round">
        <g id="intake-form" transform="translate(-817.000000, -572.000000)" stroke-width="2">
            <g id="bg_element-1" transform="translate(818.000000, 572.000000)">
                <path d="M150.770184,39.8205865 L178.473945,51.4866948 C202.314967,61.526196 229.646797,58.5708493 250.790756,43.6671946 L304.696718,5.67072279 C316.453688,-2.61636391 332.702606,0.196532245 340.989693,11.9535022 C346.438784,19.68418 347.268593,29.7613496 343.157502,38.2792657 L343.157502,38.2792657 C336.026645,53.0539382 342.223183,70.8118781 356.997855,77.9427344 C366.067894,82.3203029 376.738241,81.8040375 385.343301,76.5712913 L441.281175,42.5554135 C458.764638,31.9237016 481.556491,37.4781437 492.188203,54.9616071 C497.767879,64.1371814 499.091909,75.2822905 495.817298,85.5097471 L473.17187,156.237266 C468.226642,171.682492 468.421038,188.314555 473.725913,203.639977 L491.759746,255.738486 C496.425963,269.218869 489.28067,283.929596 475.800286,288.595814 C467.947829,291.313932 459.267203,290.088192 452.474372,285.302099 L407.199073,253.402029 C373.338393,229.544471 326.548515,237.653604 302.690958,271.514285 C298.79844,277.038877 295.670488,283.064238 293.392043,289.426745 L273.732469,344.325658 C259.76769,383.321987 216.834229,403.614068 177.8379,389.649289 C175.249205,388.722264 172.71345,387.65358 170.24212,386.448077 L142.643028,372.98537 C117.843044,360.888055 107.545496,330.976884 119.642811,306.1769 C124.058901,297.123737 131.108311,289.616807 139.866275,284.640896 L155.032141,276.02428 C191.046571,255.562375 203.654384,209.779259 183.19248,173.764829 C182.818581,173.10674 182.434742,172.45435 182.041094,171.807881 L122.00212,73.2087551 C115.350081,62.2844314 118.813452,48.0359746 129.737776,41.3839361 C136.090726,37.5154983 143.915123,36.9339069 150.770184,39.8205865 Z" id="Line-Copy" stroke="url(#linearGradient-1)"></path>
                <path d="M163.487701,62.3454993 L199.860878,77.6623156 C229.800765,90.270061 264.453802,82.1690929 285.70156,57.5950232 L288.315631,54.5717221 C296.681656,44.896006 311.307376,43.8342912 320.983092,52.2003158 C325.819098,56.3817268 328.711603,62.376151 328.975492,68.7637574 L329.652573,85.1529591 C330.991264,117.556856 305.807939,144.910627 273.404042,146.249318 C268.691119,146.444021 263.971904,146.070167 259.348422,145.135839 L201.802958,133.506862 C181.511215,129.406239 163.816864,117.100609 152.910661,99.5044535 L144.005942,85.1375088 C139.427603,77.7507795 141.704253,68.0511749 149.090982,63.4728356 C153.42397,60.7872237 158.789495,60.3670758 163.487701,62.3454993 Z" id="Line-Copy-2" stroke="url(#linearGradient-2)"></path>
                <path d="M223.49071,150.356455 L258.515492,167.107153 C286.081864,180.290846 318.890315,175.432479 341.452876,154.825553 L440.363067,64.4885191 C448.319142,57.2220461 460.659455,57.7810791 467.925928,65.7371541 C472.931673,71.2179536 474.393677,79.0644874 471.69773,85.9803033 L450.690119,139.870359 C444.644577,155.378765 443.929832,172.457648 448.658459,188.41695 L467.419298,251.735508 C469.092858,257.383836 465.870671,263.3194 460.222342,264.992959 C457.029096,265.939095 453.577193,265.339429 450.890133,263.371764 L430.957129,248.775332 C427.245512,246.057409 423.291699,243.686744 419.145685,241.693311 L389.587058,227.481315 C367.452509,216.838868 341.313902,218.863453 321.082161,232.787411 L305.991336,243.17327 C288.601535,255.141338 277.060698,273.883924 274.202135,294.799671 L272.434157,307.735737 C268.648692,335.433504 248.524854,358.110114 221.473407,365.161018 L193.68304,372.40452 C177.345201,376.662944 160.648632,366.870644 156.390208,350.532806 C154.317087,342.579087 155.534153,334.125623 159.766799,327.079761 L202.143273,256.537895 C215.409678,234.454014 216.413072,207.106717 204.800708,184.110015 L199.918399,174.441266 C195.486592,165.664677 199.008734,154.957156 207.785323,150.525349 C212.711323,148.037927 218.512356,147.975543 223.49071,150.356455 Z" id="Line-Copy-21" stroke="url(#linearGradient-3)"></path>
                <path d="M177.316931,80.2600183 L237.060132,105.417998 C241.29201,107.20005 243.277986,112.075303 241.495934,116.307181 C240.197746,119.390018 237.178464,121.394655 233.833442,121.394655 L226.213641,121.394655 C204.867988,121.394655 184.533611,112.299222 170.305291,96.3872186 L167.803407,93.5892774 C164.71374,90.1339999 165.010126,84.8282741 168.465403,81.7386071 C170.88255,79.5772236 174.328528,79.001596 177.316931,80.2600183 Z" id="Line-Copy-3" stroke="url(#linearGradient-4)"></path>
                <path d="M269.137947,95.2441968 C274.109908,92.3653781 277.254818,90.3802608 278.572674,89.2888448 C280.211188,87.9318675 285.141426,82.8912434 293.363387,74.1669723 L293.363436,74.1670185 C298.826295,68.3704136 307.953893,68.099859 313.750498,73.5627176 C317.295386,76.903505 318.914392,81.8079453 318.055095,86.602599 L316.140395,97.2861334 C312.790263,115.979001 294.920882,128.416745 276.228015,125.066614 C275.015157,124.849246 273.81486,124.566843 272.632318,124.220626 L272.632318,124.220626 C264.217207,121.756907 259.392651,112.937873 261.856371,104.522762 C263.002036,100.609614 265.609319,97.287249 269.13792,95.2441515 Z" id="Line-Copy-4" stroke="url(#linearGradient-5)" transform="translate(289.747076, 97.623973) scale(-1, 1) rotate(90.000000) translate(-289.747076, -97.623973) "></path>
                <path d="M344.442823,176.898059 C382.550948,141.483642 402.740896,122.835722 405.012665,120.954298 C405.824469,120.281983 407.393505,119.085877 409.719773,117.365983 L409.719787,117.366001 C429.519212,102.727566 457.436614,106.911375 472.07505,126.710801 C473.181962,128.207972 474.194001,129.773013 475.10522,131.39673 L481.570226,142.916838 C486.03957,150.880841 483.206589,160.96006 475.242586,165.429404 C471.737573,167.396393 467.636131,168.019453 463.705103,167.182092 L453.756816,165.062974 C437.052824,161.504801 419.63468,163.754275 404.38271,171.439413 L357.187473,195.220075 C351.628405,198.02117 344.851154,195.78539 342.050059,190.226322 C339.7926,185.746156 340.767969,180.313238 344.442866,176.898104 Z" id="Line-Copy-22" stroke="url(#linearGradient-6)" transform="translate(412.266377, 152.528534) scale(-1, 1) rotate(90.000000) translate(-412.266377, -152.528534) "></path>
                <path d="M211.273445,286.152841 L232.992093,276.099116 C242.887813,271.518312 254.623355,275.826904 259.204159,285.722624 C261.437898,290.54808 261.630889,296.070528 259.739453,301.040145 L257.211546,307.682046 C247.678324,332.72993 224.938675,350.343738 198.302819,353.311905 L189.940423,354.243769 C179.932192,355.359037 170.914814,348.149866 169.799547,338.141634 C169.381767,334.392552 170.137077,330.606177 171.961379,327.304347 L177.133176,317.943837 C184.844458,303.987076 196.803237,292.851209 211.273445,286.152841 Z" id="Line-Copy-26" stroke="url(#linearGradient-7)" transform="translate(215.359080, 314.312643) scale(-1, 1) rotate(90.000000) translate(-215.359080, -314.312643) "></path>
                <path d="M0.580470906,173.92172 L0.347895399,172.569805 C-2.69322266,154.892397 9.17183517,138.096712 26.8492438,135.055594 C28.9703068,134.690699 31.1223883,134.537541 33.2737497,134.598379 L48.7894045,135.037145 C72.1521759,135.697819 90.5558624,155.172669 89.8951888,178.53544 C89.835721,180.638342 89.6195285,182.733882 89.2484093,184.804631 L87.3337087,195.488165 C83.9835773,214.181032 66.1141963,226.618777 47.4213291,223.268646 C46.2084715,223.051278 45.0081744,222.768874 43.8256321,222.422658 L43.8256321,222.422658 C21.3332944,215.837503 4.55397859,197.018923 0.580470906,173.92172 Z" id="Line-Copy-4" stroke="url(#linearGradient-8)" transform="translate(44.892433, 179.199591) scale(-1, 1) rotate(90.000000) translate(-44.892433, -179.199591) "></path>
            </g>
        </g>
    </g>
</svg>