<?xml version="1.0" encoding="UTF-8"?>
<svg width="425px" height="400px" viewBox="0 0 425 400" version="1.1" xmlns="http://www.w3.org/2000/svg" xmlns:xlink="http://www.w3.org/1999/xlink">
    <!-- Generator: Sketch 54.1 (76490) - https://sketchapp.com -->
    <title>nutrition-forward</title>
    <desc>Created with Sketch.</desc>
    <g id="nutrition-forward" stroke="none" stroke-width="1" fill="none" fill-rule="evenodd">
        <rect id="Rectangle" fill="#DEDEDE" x="165" y="59" width="149" height="10" rx="5"></rect>
        <rect id="Rectangle-Copy" fill="#DEDEDE" x="165" y="303" width="200" height="6" rx="3"></rect>
        <rect id="Rectangle-Copy-11" fill="#E7E7E7" x="166" y="97" width="149" height="6" rx="3"></rect>
        <rect id="Rectangle-Copy-24" fill="#E7E7E7" x="325" y="97" width="11" height="6" rx="3"></rect>
        <rect id="Rectangle-Copy-25" fill="#E7E7E7" x="325" y="157" width="11" height="6" rx="3"></rect>
        <rect id="Rectangle-Copy-26" fill="#E7E7E7" x="325" y="217" width="11" height="6" rx="3"></rect>
        <rect id="Rectangle-Copy-12" fill="#E7E7E7" x="166" y="157" width="149" height="6" rx="3"></rect>
        <rect id="Rectangle-Copy-18" fill="#E7E7E7" x="166" y="217" width="149" height="6" rx="3"></rect>
        <rect id="Rectangle-Copy-13" fill="#F8BC66" x="165" y="113" width="75" height="16" rx="8"></rect>
        <rect id="Rectangle-Copy-16" fill="#5CBB9C" x="165" y="173" width="56" height="16" rx="8"></rect>
        <rect id="Rectangle-Copy-19" fill="#F8BC66" x="165" y="233" width="75" height="16" rx="8"></rect>
        <rect id="Rectangle-Copy-22" fill="#6E6EAB" x="165" y="254" width="75" height="16" rx="8"></rect>
        <rect id="Rectangle-Copy-14" fill="#5CBB9C" x="245" y="113" width="83" height="16" rx="8"></rect>
        <rect id="Rectangle-Copy-17" fill="#6E6EAB" x="225" y="173" width="75" height="16" rx="8"></rect>
        <rect id="Rectangle-Copy-20" fill="#5CBB9C" x="245" y="233" width="83" height="16" rx="8"></rect>
        <rect id="Rectangle-Copy-23" fill="#313D8E" x="245" y="254" width="60" height="16" rx="8"></rect>
        <rect id="Rectangle-Copy-21" fill="#DF354B" x="333" y="233" width="56" height="16" rx="8"></rect>
        <rect id="Rectangle-Copy-15" fill="#DF354B" x="333" y="113" width="56" height="16" rx="8"></rect>
        <rect id="Rectangle" fill="#EEEEEE" x="27" y="75" width="96" height="231" rx="18"></rect>
    </g>
</svg>