<?xml version="1.0" encoding="UTF-8"?>
<svg width="425px" height="400px" viewBox="0 0 425 400" version="1.1" xmlns="http://www.w3.org/2000/svg" xmlns:xlink="http://www.w3.org/1999/xlink">
    <!-- Generator: Sketch 54.1 (76490) - https://sketchapp.com -->
    <title>ai-database</title>
    <desc>Created with Sketch.</desc>
    <g id="ai-database" stroke="none" stroke-width="1" fill="none" fill-rule="evenodd">
        <g id="Group" transform="translate(8.000000, 60.000000)">
            <rect id="Rectangle" fill="#DEDEDE" x="0" y="0" width="149" height="10" rx="5"></rect>
            <rect id="Rectangle-Copy" fill="#F7F7F7" x="0" y="40" width="200" height="40" rx="3"></rect>
            <rect id="Rectangle-Copy-3" fill="#DDDDDD" x="0" y="90" width="200" height="40" rx="3"></rect>
            <rect id="Rectangle-Copy-2" fill="#F7F7F7" x="210" y="40" width="200" height="40" rx="3"></rect>
            <rect id="Rectangle-Copy-4" fill="#F7F7F7" x="210" y="90" width="200" height="40" rx="3"></rect>
            <rect id="Rectangle-Copy-6" fill="#F7F7F7" x="0" y="140" width="200" height="40" rx="3"></rect>
            <rect id="Rectangle-Copy-5" fill="#DDDDDD" x="210" y="140" width="200" height="40" rx="3"></rect>
            <rect id="Rectangle-Copy-8" fill="#DDDDDD" x="0" y="190" width="200" height="40" rx="3"></rect>
            <rect id="Rectangle-Copy-9" fill="#DDDDDD" x="0" y="240" width="200" height="40" rx="3"></rect>
            <rect id="Rectangle-Copy-7" fill="#DDDDDD" x="210" y="190" width="200" height="40" rx="3"></rect>
            <rect id="Rectangle-Copy-10" fill="#F7F7F7" x="210" y="240" width="200" height="40" rx="3"></rect>
            <rect id="Rectangle-Copy-11" fill="#E7E7E7" x="11" y="52" width="149" height="16" rx="8"></rect>
            <rect id="Rectangle-Copy-13" fill="#CCCCCC" x="11" y="102" width="149" height="16" rx="8"></rect>
            <rect id="Rectangle-Copy-12" fill="#E7E7E7" x="220" y="52" width="149" height="16" rx="8"></rect>
            <rect id="Rectangle-Copy-14" fill="#E7E7E7" x="220" y="102" width="149" height="16" rx="8"></rect>
            <rect id="Rectangle-Copy-16" fill="#E7E7E7" x="11" y="152" width="149" height="16" rx="8"></rect>
            <rect id="Rectangle-Copy-15" fill="#CCCCCC" x="220" y="152" width="149" height="16" rx="8"></rect>
            <rect id="Rectangle-Copy-18" fill="#CCCCCC" x="11" y="202" width="149" height="16" rx="8"></rect>
            <rect id="Rectangle-Copy-17" fill="#CCCCCC" x="220" y="202" width="149" height="16" rx="8"></rect>
            <rect id="Rectangle-Copy-20" fill="#CCCCCC" x="11" y="252" width="149" height="16" rx="8"></rect>
            <rect id="Rectangle-Copy-19" fill="#E7E7E7" x="220" y="252" width="149" height="16" rx="8"></rect>
            <path d="M184,52 C179.588942,52 176,55.5889422 176,60 C176,64.4110578 179.588942,68 184,68 C188.411058,68 192,64.4110578 192,60 C192,55.5889422 188.411058,52 184,52 Z M184,53.2307692 C187.745193,53.2307692 190.769231,56.254808 190.769231,60 C190.769231,63.7451926 187.745193,66.7692308 184,66.7692308 C180.254808,66.7692308 177.230769,63.7451926 177.230769,60 C177.230769,56.254808 180.254808,53.2307692 184,53.2307692 Z M187.865385,57.0961538 L183.384615,61.5769231 L180.75,58.9423077 L179.865385,59.8269231 L182.942308,62.9038462 L183.384615,63.3269231 L183.826923,62.9038462 L188.75,57.9807692 L187.865385,57.0961538 Z" id="Shape" fill="#DEDEDE" fill-rule="nonzero"></path>
            <path d="M184,102 C179.588942,102 176,105.588942 176,110 C176,114.411058 179.588942,118 184,118 C188.411058,118 192,114.411058 192,110 C192,105.588942 188.411058,102 184,102 Z M184,103.230769 C187.745193,103.230769 190.769231,106.254808 190.769231,110 C190.769231,113.745193 187.745193,116.769231 184,116.769231 C180.254808,116.769231 177.230769,113.745193 177.230769,110 C177.230769,106.254808 180.254808,103.230769 184,103.230769 Z M187.865385,107.096154 L183.384615,111.576923 L180.75,108.942308 L179.865385,109.826923 L182.942308,112.903846 L183.384615,113.326923 L183.826923,112.903846 L188.75,107.980769 L187.865385,107.096154 Z" id="Shape-Copy-2" fill="#5CBB9C" fill-rule="nonzero"></path>
            <path d="M395,52 C390.588942,52 387,55.5889422 387,60 C387,64.4110578 390.588942,68 395,68 C399.411058,68 403,64.4110578 403,60 C403,55.5889422 399.411058,52 395,52 Z M395,53.2307692 C398.745193,53.2307692 401.769231,56.254808 401.769231,60 C401.769231,63.7451926 398.745193,66.7692308 395,66.7692308 C391.254808,66.7692308 388.230769,63.7451926 388.230769,60 C388.230769,56.254808 391.254808,53.2307692 395,53.2307692 Z M398.865385,57.0961538 L394.384615,61.5769231 L391.75,58.9423077 L390.865385,59.8269231 L393.942308,62.9038462 L394.384615,63.3269231 L394.826923,62.9038462 L399.75,57.9807692 L398.865385,57.0961538 Z" id="Shape-Copy" fill="#DEDEDE" fill-rule="nonzero"></path>
            <path d="M395,102 C390.588942,102 387,105.588942 387,110 C387,114.411058 390.588942,118 395,118 C399.411058,118 403,114.411058 403,110 C403,105.588942 399.411058,102 395,102 Z M395,103.230769 C398.745193,103.230769 401.769231,106.254808 401.769231,110 C401.769231,113.745193 398.745193,116.769231 395,116.769231 C391.254808,116.769231 388.230769,113.745193 388.230769,110 C388.230769,106.254808 391.254808,103.230769 395,103.230769 Z M398.865385,107.096154 L394.384615,111.576923 L391.75,108.942308 L390.865385,109.826923 L393.942308,112.903846 L394.384615,113.326923 L394.826923,112.903846 L399.75,107.980769 L398.865385,107.096154 Z" id="Shape-Copy-3" fill="#DEDEDE" fill-rule="nonzero"></path>
            <path d="M184,152 C179.588942,152 176,155.588942 176,160 C176,164.411058 179.588942,168 184,168 C188.411058,168 192,164.411058 192,160 C192,155.588942 188.411058,152 184,152 Z M184,153.230769 C187.745193,153.230769 190.769231,156.254808 190.769231,160 C190.769231,163.745193 187.745193,166.769231 184,166.769231 C180.254808,166.769231 177.230769,163.745193 177.230769,160 C177.230769,156.254808 180.254808,153.230769 184,153.230769 Z M187.865385,157.096154 L183.384615,161.576923 L180.75,158.942308 L179.865385,159.826923 L182.942308,162.903846 L183.384615,163.326923 L183.826923,162.903846 L188.75,157.980769 L187.865385,157.096154 Z" id="Shape-Copy-5" fill="#DEDEDE" fill-rule="nonzero"></path>
            <path d="M395,152 C390.588942,152 387,155.588942 387,160 C387,164.411058 390.588942,168 395,168 C399.411058,168 403,164.411058 403,160 C403,155.588942 399.411058,152 395,152 Z M395,153.230769 C398.745193,153.230769 401.769231,156.254808 401.769231,160 C401.769231,163.745193 398.745193,166.769231 395,166.769231 C391.254808,166.769231 388.230769,163.745193 388.230769,160 C388.230769,156.254808 391.254808,153.230769 395,153.230769 Z M398.865385,157.096154 L394.384615,161.576923 L391.75,158.942308 L390.865385,159.826923 L393.942308,162.903846 L394.384615,163.326923 L394.826923,162.903846 L399.75,157.980769 L398.865385,157.096154 Z" id="Shape-Copy-4" fill="#5CBB9C" fill-rule="nonzero"></path>
            <path d="M184,202 C179.588942,202 176,205.588942 176,210 C176,214.411058 179.588942,218 184,218 C188.411058,218 192,214.411058 192,210 C192,205.588942 188.411058,202 184,202 Z M184,203.230769 C187.745193,203.230769 190.769231,206.254808 190.769231,210 C190.769231,213.745193 187.745193,216.769231 184,216.769231 C180.254808,216.769231 177.230769,213.745193 177.230769,210 C177.230769,206.254808 180.254808,203.230769 184,203.230769 Z M187.865385,207.096154 L183.384615,211.576923 L180.75,208.942308 L179.865385,209.826923 L182.942308,212.903846 L183.384615,213.326923 L183.826923,212.903846 L188.75,207.980769 L187.865385,207.096154 Z" id="Shape-Copy-7" fill="#5CBB9C" fill-rule="nonzero"></path>
            <path d="M395,202 C390.588942,202 387,205.588942 387,210 C387,214.411058 390.588942,218 395,218 C399.411058,218 403,214.411058 403,210 C403,205.588942 399.411058,202 395,202 Z M395,203.230769 C398.745193,203.230769 401.769231,206.254808 401.769231,210 C401.769231,213.745193 398.745193,216.769231 395,216.769231 C391.254808,216.769231 388.230769,213.745193 388.230769,210 C388.230769,206.254808 391.254808,203.230769 395,203.230769 Z M398.865385,207.096154 L394.384615,211.576923 L391.75,208.942308 L390.865385,209.826923 L393.942308,212.903846 L394.384615,213.326923 L394.826923,212.903846 L399.75,207.980769 L398.865385,207.096154 Z" id="Shape-Copy-6" fill="#5CBB9C" fill-rule="nonzero"></path>
            <path d="M184,252 C179.588942,252 176,255.588942 176,260 C176,264.411058 179.588942,268 184,268 C188.411058,268 192,264.411058 192,260 C192,255.588942 188.411058,252 184,252 Z M184,253.230769 C187.745193,253.230769 190.769231,256.254808 190.769231,260 C190.769231,263.745193 187.745193,266.769231 184,266.769231 C180.254808,266.769231 177.230769,263.745193 177.230769,260 C177.230769,256.254808 180.254808,253.230769 184,253.230769 Z M187.865385,257.096154 L183.384615,261.576923 L180.75,258.942308 L179.865385,259.826923 L182.942308,262.903846 L183.384615,263.326923 L183.826923,262.903846 L188.75,257.980769 L187.865385,257.096154 Z" id="Shape-Copy-9" fill="#5CBB9C" fill-rule="nonzero"></path>
            <path d="M395,252 C390.588942,252 387,255.588942 387,260 C387,264.411058 390.588942,268 395,268 C399.411058,268 403,264.411058 403,260 C403,255.588942 399.411058,252 395,252 Z M395,253.230769 C398.745193,253.230769 401.769231,256.254808 401.769231,260 C401.769231,263.745193 398.745193,266.769231 395,266.769231 C391.254808,266.769231 388.230769,263.745193 388.230769,260 C388.230769,256.254808 391.254808,253.230769 395,253.230769 Z M398.865385,257.096154 L394.384615,261.576923 L391.75,258.942308 L390.865385,259.826923 L393.942308,262.903846 L394.384615,263.326923 L394.826923,262.903846 L399.75,257.980769 L398.865385,257.096154 Z" id="Shape-Copy-8" fill="#DEDEDE" fill-rule="nonzero"></path>
        </g>
    </g>
</svg>