<?xml version="1.0" encoding="UTF-8"?>
<svg width="563px" height="406px" viewBox="0 0 563 406" version="1.1" xmlns="http://www.w3.org/2000/svg" xmlns:xlink="http://www.w3.org/1999/xlink">
    <!-- Generator: Sketch 54.1 (76490) - https://sketchapp.com -->
    <title>bg_element-4</title>
    <desc>Created with Sketch.</desc>
    <defs>
        <linearGradient x1="0%" y1="100%" x2="98.0282545%" y2="100%" id="linearGradient-1">
            <stop stop-color="#5CBB9C" offset="0%"></stop>
            <stop stop-color="#293397" offset="100%"></stop>
        </linearGradient>
        <linearGradient x1="0%" y1="100%" x2="98.0282545%" y2="100%" id="linearGradient-2">
            <stop stop-color="#5CBB9C" offset="0%"></stop>
            <stop stop-color="#293397" offset="100%"></stop>
        </linearGradient>
        <linearGradient x1="0%" y1="100%" x2="98.0282545%" y2="100%" id="linearGradient-3">
            <stop stop-color="#5CBB9C" offset="0%"></stop>
            <stop stop-color="#293397" offset="100%"></stop>
        </linearGradient>
        <linearGradient x1="0%" y1="100%" x2="98.0282545%" y2="100%" id="linearGradient-4">
            <stop stop-color="#5CBB9C" offset="0%"></stop>
            <stop stop-color="#293397" offset="100%"></stop>
        </linearGradient>
        <linearGradient x1="0%" y1="100%" x2="98.0282545%" y2="100%" id="linearGradient-5">
            <stop stop-color="#5CBB9C" offset="0%"></stop>
            <stop stop-color="#293397" offset="100%"></stop>
        </linearGradient>
        <linearGradient x1="0%" y1="100%" x2="98.0282545%" y2="100%" id="linearGradient-6">
            <stop stop-color="#5CBB9C" offset="0%"></stop>
            <stop stop-color="#293397" offset="100%"></stop>
        </linearGradient>
        <linearGradient x1="0%" y1="100%" x2="98.0282545%" y2="100%" id="linearGradient-7">
            <stop stop-color="#5CBB9C" offset="0%"></stop>
            <stop stop-color="#293397" offset="100%"></stop>
        </linearGradient>
    </defs>
    <g id=".io-Site" stroke="none" stroke-width="1" fill="none" fill-rule="evenodd" stroke-dasharray="1,4" stroke-linecap="round">
        <g id="intake-form" transform="translate(-120.000000, -567.000000)" stroke-width="2">
            <g id="bg_element-4" transform="translate(121.000000, 568.000000)">
                <path d="M141.587943,72.1849462 L171.597491,72.1849462 C184.205845,72.1849462 196.34872,76.9483767 205.594109,85.5212047 L214.795012,94.0527831 C224.040401,102.625611 236.183276,107.389042 248.79163,107.389042 L290.43739,107.389042 C302.523968,107.389042 314.201431,111.767164 323.308861,119.713235 L379.55118,168.783658 C390.434244,178.278938 396.679709,192.016424 396.679709,206.459464 L396.679709,248.93997 C396.679709,270.408816 382.974445,289.48135 362.626829,296.328675 L234.652148,339.39437 C222.199666,343.584845 208.598169,342.705524 196.788908,336.946555 L110.270051,294.754296 C97.3818391,288.46916 87.8122982,276.953197 83.992713,263.132209 L66.6221518,200.277659 C63.6579802,189.551944 64.3564785,178.14391 68.6070442,167.859944 L95.3793765,103.086036 C103.109471,84.3835771 121.350939,72.1849462 141.587943,72.1849462 Z" id="Line-Copy" stroke="url(#linearGradient-1)"></path>
                <path d="M31.2364703,69.6025049 L60.3778869,60.3057281 C69.7574237,57.3134419 78.0448272,51.618686 84.2009756,43.9355015 L104.184881,18.9945759 C119.369501,0.0434030117 145.975526,-5.25708476 167.263534,6.4279628 L218.36056,34.4752647 C225.733719,38.5224125 234.008688,40.6441779 242.419567,40.6441779 L306.019278,40.6441779 C320.029782,40.6441779 333.397536,46.5224689 342.867636,56.8477503 L432.80188,154.903357 C445.045523,168.252642 449.111778,187.179906 443.431226,204.379951 L399.60882,337.069053 C395.488188,349.545843 386.621829,359.899153 374.927311,365.889825 L311.68791,398.285045 C299.003769,404.782665 284.149669,405.558807 270.857433,400.418479 L160.804375,357.859143 C158.534409,356.98131 156.203379,356.270386 153.829874,355.732043 L108.641472,345.482683 C92.1404564,341.740023 78.651733,329.905964 72.793616,314.03229 L3.52941141,126.347859 C-4.82405225,103.712573 6.75365227,78.5912278 29.3889382,70.2377642 C29.9999698,70.0122654 30.6159678,69.8004593 31.2364703,69.6025049 Z" id="Line-Copy-16" stroke="url(#linearGradient-2)"></path>
                <path d="M100.499734,160.786307 L114.335153,134.294631 C123.155253,117.406148 142.663165,109.08285 160.958511,114.402184 L220.715548,131.776418 C224.344219,132.831446 228.104087,133.366946 231.883021,133.366946 L269.553735,133.366946 C282.450903,133.366946 294.556809,139.585542 302.06865,150.069299 L326.875547,184.69057 C330.977176,190.41493 333.494866,197.120677 334.174122,204.129976 L336.494255,228.071607 C338.380665,247.537615 324.793673,265.110438 305.479599,268.184612 L196.798015,285.483195 C189.647791,286.621279 182.322741,285.797311 175.604041,283.099163 L133.439297,266.16632 C122.266718,261.679549 113.70943,252.398955 110.141974,240.899786 L97.0649122,198.74781 C93.1525292,186.13682 94.3872956,172.490233 100.499734,160.786307 Z" id="Line-Copy-6" stroke="url(#linearGradient-3)"></path>
                <path d="M305.309578,192.597364 L307.190712,197.775509 C312.955447,213.643938 305.400407,231.261019 289.930641,238.023087 L231.713528,263.470662 C226.216863,265.873337 219.813183,263.365163 217.410509,257.868498 C217.344506,257.717503 217.281949,257.565025 217.222885,257.411184 L217.222885,257.411184 C214.725654,250.90676 216.116441,243.549748 220.815714,238.405769 L269.20848,185.43345 C277.221645,176.661975 290.828283,176.047244 299.599757,184.060408 C302.164381,186.403316 304.123487,189.332444 305.309578,192.597364 Z" id="Line-Copy-12" stroke="url(#linearGradient-4)"></path>
                <path d="M173.016745,166.001466 C176.914675,170.664449 179.303531,173.376845 180.183313,174.138655 C181.300899,175.106382 185.130065,177.383108 191.670812,180.968832 L191.670826,180.968807 C199.657595,185.34726 202.582714,195.371254 198.204261,203.358024 C197.348241,204.919496 196.24498,206.332024 194.937327,207.540747 L192.721904,209.588563 C183.659672,217.965198 170.5883,220.38435 159.128417,215.805796 L159.022956,215.763661 C147.985897,211.354037 141.46374,199.899236 143.304383,188.157282 L145.585606,173.604747 C146.922335,165.077393 154.918755,159.248239 163.446109,160.584968 C167.187158,161.171406 170.588054,163.096159 173.016712,166.001494 Z" id="Line-Copy-13" stroke="url(#linearGradient-5)"></path>
                <path d="M523.59809,68.3714754 L535.791971,83.0673921 C537.383969,84.9860489 539.117242,86.7829472 540.977284,88.4430507 L552.591656,98.8089741 C561.057605,106.364903 563.288588,118.715955 558.001052,128.756189 L552.591656,139.027819 C548.879692,146.07628 540.156644,148.781046 533.108183,145.069082 C530.165859,143.519552 527.849318,141.00096 526.55067,137.939617 C517.608859,116.860908 511.762937,105.411574 509.012867,103.591628 C506.737194,102.08563 500.16436,99.375126 489.294367,95.4601158 L489.294378,95.4600849 C481.224052,92.5534219 477.038076,83.654814 479.944739,75.5844879 C480.982096,72.7042727 482.847487,70.19485 485.306563,68.3714754 L490.665353,64.397998 C500.95642,56.7672986 515.41728,58.5120641 523.59809,68.3714754 Z" id="Line-Copy-17" stroke="url(#linearGradient-6)"></path>
                <path d="M146.387658,133.316129 L155.449626,133.316129 C160.594146,133.316129 165.550237,135.252285 169.332396,138.739599 L173.166759,142.275047 C176.948918,145.762361 181.905009,147.698517 187.049529,147.698517 L207.193704,147.698517 C210.303286,147.698517 213.372041,148.406617 216.167234,149.769113 L234.249499,158.583182 C242.608184,162.657562 246.081299,172.736552 242.006919,181.095237 C241.070894,183.015514 239.777985,184.740121 238.197189,186.177024 L183.562746,235.838337 C177.371515,241.466007 168.379621,242.76177 160.851354,239.111127 L134.540787,226.352483 C126.907357,222.650844 122.34637,214.62607 123.071822,206.173549 L127.86586,150.316355 C128.691116,140.700984 136.736938,133.316129 146.387658,133.316129 Z" id="Line-Copy-14" stroke="url(#linearGradient-7)"></path>
            </g>
        </g>
    </g>
</svg>