<?xml version="1.0" encoding="UTF-8"?>
<svg width="549px" height="395px" viewBox="0 0 549 395" version="1.1" xmlns="http://www.w3.org/2000/svg" xmlns:xlink="http://www.w3.org/1999/xlink">
    <!-- Generator: Sketch 54.1 (76490) - https://sketchapp.com -->
    <title>bg_element-3</title>
    <desc>Created with Sketch.</desc>
    <defs>
        <linearGradient x1="50%" y1="0%" x2="50%" y2="65.1465883%" id="linearGradient-1">
            <stop stop-color="#F8BC66" offset="0%"></stop>
            <stop stop-color="#DF354B" offset="100%"></stop>
        </linearGradient>
        <linearGradient x1="50%" y1="0%" x2="50%" y2="65.1465883%" id="linearGradient-2">
            <stop stop-color="#F8BC66" offset="0%"></stop>
            <stop stop-color="#DF354B" offset="100%"></stop>
        </linearGradient>
        <linearGradient x1="50%" y1="0%" x2="50%" y2="65.1465883%" id="linearGradient-3">
            <stop stop-color="#F8BC66" offset="0%"></stop>
            <stop stop-color="#DF354B" offset="100%"></stop>
        </linearGradient>
        <linearGradient x1="50%" y1="0%" x2="50%" y2="65.1465883%" id="linearGradient-4">
            <stop stop-color="#F8BC66" offset="0%"></stop>
            <stop stop-color="#DF354B" offset="100%"></stop>
        </linearGradient>
        <linearGradient x1="50%" y1="0%" x2="50%" y2="65.1465883%" id="linearGradient-5">
            <stop stop-color="#F8BC66" offset="0%"></stop>
            <stop stop-color="#DF354B" offset="100%"></stop>
        </linearGradient>
        <linearGradient x1="50%" y1="0%" x2="50%" y2="65.1465883%" id="linearGradient-6">
            <stop stop-color="#F8BC66" offset="0%"></stop>
            <stop stop-color="#DF354B" offset="100%"></stop>
        </linearGradient>
    </defs>
    <g id=".io-Site" stroke="none" stroke-width="1" fill="none" fill-rule="evenodd" stroke-dasharray="1,4" stroke-linecap="round">
        <g id="intake-form" transform="translate(-817.000000, -33.000000)" stroke-width="2">
            <g id="bg_element-3" transform="translate(818.000000, 34.000000)">
                <path d="M238.722525,156.875027 L253.702636,115.079361 C263.931432,86.5402298 290.981942,67.5 321.298774,67.5 L343.715998,67.5 C361.84997,67.5 379.369847,74.0701527 393.032191,85.9941325 L477.275098,159.518169 C493.594292,173.760948 502.958904,194.363638 502.958904,216.024037 L502.958904,257.740714 C502.958904,293.49247 473.97638,322.474994 438.224624,322.474994 C434.829859,322.474994 431.440353,322.207955 428.08747,321.676347 L327.392903,305.710971 C305.538279,302.245866 286.329161,289.30686 274.905452,270.356124 L245.09254,220.899626 C233.457925,201.599019 231.118908,178.089708 238.722525,156.875027 Z" id="Line-Copy-7" stroke="url(#linearGradient-1)"></path>
                <path d="M199.511918,128.341516 L214.79994,85.8488336 C225.508432,56.0848419 253.7397,36.2390554 285.37144,36.2390554 L343.103837,36.2390554 C350.418988,36.2390554 357.694789,37.3092538 364.700109,39.4156538 L426.859893,58.1062147 C445.01557,63.5653676 460.430131,75.6978262 470.002239,92.0625956 C518.003626,174.127238 543.357371,224.364191 546.063475,242.773456 C547.9595,255.671866 546.745448,283.091671 542.421318,325.032869 L542.421317,325.032869 C538.173301,366.235819 501.328012,396.193712 460.125062,391.945695 C456.546072,391.576702 452.998274,390.950646 449.509153,390.072378 L318.558365,357.109949 C297.59315,351.832665 279.924938,337.765116 270.08493,318.515071 L203.302359,187.868084 C193.863707,169.403213 192.491557,147.854438 199.511918,128.341516 Z" id="Line-Copy-11" stroke="url(#linearGradient-2)"></path>
                <path d="M315.822007,99 L338.17855,99 C356.304005,99 373.816244,105.563994 387.476101,117.477868 L431.751811,156.094318 C459.900094,180.644726 462.816747,223.365456 438.266339,251.513738 C434.591176,255.727499 430.407637,259.46923 425.811499,262.65327 L399.480477,280.894427 C369.967883,301.339697 329.469031,293.989178 309.023761,264.476583 C307.012176,261.572875 305.240612,258.510037 303.726665,255.318492 C303.726665,255.318492 303.726665,255.318492 303.726665,255.318492 L277.385425,148.01312 C272.174407,126.785182 285.158686,105.352173 306.386625,100.141155 C309.474496,99.3831469 312.642459,99 315.822007,99 Z" id="Line-Copy-8" stroke="url(#linearGradient-3)"></path>
                <path d="M338.447065,129.748802 L338.447065,129.748802 C356.176511,122.538455 376.4526,125.890004 390.918702,138.422134 L419.863275,163.49711 C442.296131,182.93092 444.727338,216.870559 425.293528,239.303415 C422.307743,242.74997 418.895433,245.80249 415.138851,248.387397 L412.394327,250.275906 C388.584121,266.659726 356.000425,260.639451 339.616605,236.829245 C336.400502,232.155362 333.965825,226.989605 332.40789,221.534209 L318.117617,171.494214 C313.244407,154.429781 322.007912,136.434404 338.447065,129.748802 Z" id="Line-Copy-9" stroke="url(#linearGradient-4)"></path>
                <path d="M55.2737164,27.3375086 L49.2529053,15.7138815 C46.5192729,10.4363993 48.5814706,3.94210776 53.8589528,1.20847536 C55.769034,0.219090724 57.9317908,-0.175161685 60.0681218,0.0765960022 L103.891379,5.24098386 C120.319617,7.17698312 132.077872,22.049661 130.170987,38.481304 L130.170987,38.481304 C128.216844,55.3201675 113.73987,67.8873041 96.7934964,67.4555559 L83.5821638,67.1189666 C73.5728152,66.8639552 64.9759197,59.9333506 62.6029211,50.2060196 L60.2872935,40.7138625 C59.1547412,36.071335 57.4716229,31.5807318 55.2737164,27.3375086 Z" id="Line-Copy-10" stroke="url(#linearGradient-5)"></path>
                <path d="M39.6613892,165.938193 L91.722576,148.481025 C106.571146,143.502 122.644588,151.502846 127.623614,166.351416 C130.103964,173.748378 129.427191,181.840485 125.752622,188.722688 L110.957089,216.433647 C96.5362759,243.442784 63.0630114,253.81316 35.8982531,239.687678 L12.1119545,227.318972 C1.09933593,221.592488 -3.18592323,208.022765 2.54056031,197.010146 C3.3492052,195.455038 4.33699374,193.999866 5.48378674,192.674298 L13.3609783,183.569117 C20.3909616,175.443218 29.4740576,169.354211 39.6613892,165.938193 Z" id="Line-Copy-15" stroke="url(#linearGradient-6)"></path>
            </g>
        </g>
    </g>
</svg>