<?xml version="1.0" encoding="UTF-8"?>
<svg width="291px" height="493px" viewBox="0 0 291 493" version="1.1" xmlns="http://www.w3.org/2000/svg" xmlns:xlink="http://www.w3.org/1999/xlink">
    <!-- Generator: Sketch 54.1 (76490) - https://sketchapp.com -->
    <title>bg_element-2</title>
    <desc>Created with Sketch.</desc>
    <defs>
        <linearGradient x1="31.9886663%" y1="13.9185021%" x2="55.1770577%" y2="63.6784231%" id="linearGradient-1">
            <stop stop-color="#DF354B" offset="0%"></stop>
            <stop stop-color="#6F6DAA" offset="58.5874343%"></stop>
            <stop stop-color="#6E6EAB" offset="100%"></stop>
        </linearGradient>
        <linearGradient x1="39.6053935%" y1="13.9185021%" x2="52.9877564%" y2="63.6784231%" id="linearGradient-2">
            <stop stop-color="#DF354B" offset="0%"></stop>
            <stop stop-color="#6E6EAB" offset="100%"></stop>
        </linearGradient>
        <linearGradient x1="28.6217531%" y1="13.9185021%" x2="56.1448208%" y2="63.6784231%" id="linearGradient-3">
            <stop stop-color="#DF354B" offset="0%"></stop>
            <stop stop-color="#6E6EAB" offset="100%"></stop>
        </linearGradient>
        <linearGradient x1="45.5936942%" y1="13.9185021%" x2="51.2665192%" y2="63.6784231%" id="linearGradient-4">
            <stop stop-color="#DF354B" offset="0%"></stop>
            <stop stop-color="#6E6EAB" offset="100%"></stop>
        </linearGradient>
        <linearGradient x1="27.5752523%" y1="13.9185021%" x2="56.44562%" y2="63.6784231%" id="linearGradient-5">
            <stop stop-color="#DF354B" offset="0%"></stop>
            <stop stop-color="#6E6EAB" offset="100%"></stop>
        </linearGradient>
        <linearGradient x1="36.5817076%" y1="13.9185021%" x2="53.8568645%" y2="63.6784231%" id="linearGradient-6">
            <stop stop-color="#DF354B" offset="0%"></stop>
            <stop stop-color="#6E6EAB" offset="100%"></stop>
        </linearGradient>
        <linearGradient x1="9.45108744%" y1="13.9185021%" x2="61.6551092%" y2="63.6784231%" id="linearGradient-7">
            <stop stop-color="#DF354B" offset="0%"></stop>
            <stop stop-color="#6E6EAB" offset="100%"></stop>
        </linearGradient>
    </defs>
    <g id=".io-Site" stroke="none" stroke-width="1" fill="none" fill-rule="evenodd" stroke-dasharray="1,4" stroke-linecap="round">
        <g id="intake-form" transform="translate(-35.000000, -35.000000)" stroke-width="2">
            <g id="bg_element-2" transform="translate(36.000000, 34.000000)">
                <path d="M69.6469693,127.116113 L67.7308136,130.238738 C62.1362595,139.35579 58.5566265,149.564087 57.2321649,160.178487 L42.7168922,276.505689 C42.1444957,281.092945 41.1492049,285.617456 39.7437274,290.021453 L3.42971444,403.80969 C-7.99273603,439.601396 11.7624493,477.876033 47.5541559,489.298484 C57.1076093,492.347342 67.2169793,493.246321 77.1585133,491.931059 L100.702782,488.816161 C141.766326,483.383469 170.650838,445.690822 165.218146,404.627279 C164.865986,401.965445 164.371139,399.324443 163.735741,396.71568 L148.351464,333.552206 C142.984465,311.516832 147.671449,288.235956 161.147202,269.994069 L283.236516,104.723928 C292.63831,91.9968859 289.942664,74.0579204 277.215623,64.6561266 C269.277037,58.7916887 258.87889,57.4262607 249.695377,61.0423181 L164.347383,94.6485486 C159.390406,96.600385 154.239574,98.0185135 148.982104,98.8789215 L99.6853549,106.946551 C87.2179859,108.986891 76.2543479,116.348531 69.6469693,127.116113 Z" id="Line-Copy-5" stroke="url(#linearGradient-1)"></path>
                <path d="M24.0097515,388.236009 L43.7871214,348.840585 C47.3325886,341.778211 55.9319432,338.927194 62.9943175,342.472661 C67.450417,344.709721 70.4206199,349.10517 70.8339437,354.074116 L78.3917122,444.933004 C79.3873239,456.902169 70.4915016,467.412197 58.522337,468.407808 C53.9547354,468.787748 49.3838641,467.714833 45.4623572,465.342256 L30.564094,456.328558 C17.7307892,448.564195 11.4210138,433.369444 14.9792776,418.798314 L19.3447124,400.921811 C20.4169472,396.530998 21.9818875,392.275402 24.0097515,388.236009 Z" id="Line-Copy-18" stroke="url(#linearGradient-2)"></path>
                <path d="M129.695878,5.2766403 C133.747125,7.95764311 136.039697,9.43261576 136.573592,9.70155825 C136.573592,9.70155825 136.573592,9.70155825 136.573592,9.70155825 L136.573592,9.70155825 C148.791898,15.8563621 156.500017,28.3700784 156.500017,42.0510358 L156.499998,55.2491607 C156.499998,65.2963739 148.355122,73.4412495 138.307909,73.4412495 C134.072572,73.4412495 129.969958,71.9634884 126.707425,69.2627565 L118.332996,62.3303866 C105.097437,51.3739636 98.7812321,34.1432308 101.800153,17.2284643 L101.800153,17.2284643 C103.562116,7.35633123 112.993414,0.7817393 122.865547,2.54370219 C125.30495,2.97908293 127.629423,3.90915861 129.695859,5.27666838 Z" id="Line-Copy-19" stroke="url(#linearGradient-3)"></path>
                <path d="M116.011771,336.426772 L122.237762,344.235846 C128.371781,351.929564 130.194066,362.205476 127.07963,371.539273 L127.07963,371.539273 C123.790388,381.396956 122.703683,391.856197 123.896137,402.179524 L127.07963,429.739699 C127.550049,433.812212 124.629974,437.494985 120.557462,437.965404 C117.427183,438.326984 114.409745,436.672813 113.030994,433.839365 L99.8610189,406.773971 C94.992921,396.769625 93.002376,385.60875 94.1117813,374.538315 L97.380817,341.917552 C97.9582283,336.155731 103.097191,331.952937 108.859012,332.530348 C111.670938,332.812141 114.250049,334.217097 116.011771,336.426772 Z" id="Line-Copy-23" stroke="url(#linearGradient-4)"></path>
                <path d="M113.764577,134.536825 L113.764577,134.536825 C122.88807,140.600905 134.621031,141.10841 144.234068,135.854772 L217.393884,95.8720701 C226.815265,90.7231746 238.626807,94.1867081 243.775703,103.608089 C247.590906,110.589096 246.767612,119.190199 241.697382,125.320697 L102.142393,294.058901 C94.4609426,303.346668 80.7046739,304.648845 71.4169071,296.967394 C64.8729104,291.555179 62.0628015,282.838285 64.2136544,274.623068 L88.6221355,181.394484 C89.0255392,179.853677 89.3674303,178.297418 89.6469964,176.729405 L95.8008905,142.213836 C96.9331235,135.86344 102.998993,131.633283 109.349389,132.765516 C110.927051,133.046803 112.42995,133.649744 113.764577,134.536825 Z" id="Line-Copy-20" stroke="url(#linearGradient-5)"></path>
                <path d="M123.037652,158.967778 L134.373622,165.127601 C142.982765,169.805701 149.054927,178.081887 150.93345,187.698181 L150.93345,187.698181 C152.819427,197.352637 150.470217,207.352184 144.482536,215.156868 L103.789324,268.198713 C100.454866,272.545035 94.2283635,273.365313 89.8820412,270.030855 C86.2971044,267.280524 85.0239975,262.454933 86.7855928,258.294059 L109.560269,204.500458 C114.421869,193.017399 115.137609,180.20081 111.584791,168.24785 L111.584791,168.24785 C110.329817,164.025664 112.735217,159.585548 116.957403,158.330574 C118.988334,157.726914 121.175998,157.956178 123.037652,158.967778 Z" id="Line-Copy-24" stroke="url(#linearGradient-6)"></path>
                <path d="M177.13628,136.89559 L207.006917,120.292591 C209.116795,119.119858 211.777878,119.879563 212.950612,121.989441 C213.914784,123.724095 213.589224,125.890617 212.157816,127.26529 L198.426276,140.452571 C191.437739,147.164113 185.815916,155.166246 181.871652,164.016513 L176.954713,175.049297 C174.847357,179.777849 169.305759,181.902748 164.577207,179.795392 C163.176906,179.171326 161.951045,178.213326 161.00706,177.005354 L156.143022,170.781074 C153.137875,166.935529 151.971197,161.965149 152.951462,157.184123 L152.951462,157.184123 C153.932912,152.397325 156.941363,148.271098 161.198652,145.87273 L176.761191,137.105485 C176.88602,137.035162 177.01105,136.965196 177.13628,136.89559 Z" id="Line-Copy-25" stroke="url(#linearGradient-7)"></path>
            </g>
        </g>
    </g>
</svg>