<svg xmlns="http://www.w3.org/2000/svg" viewBox="0 0 70 70" class="process2"><defs><style>.process2 .cls-1{fill:#fff;}.process2 .cls-2{fill:#f9bc6c;}.process2 .cls-3{fill:#de374f;}.process2 .cls-4{fill:#2b398e;}.process2 .cls-5{fill:#4fd4ab;}.process2 .cls-6{fill:#39b54a;}.process2 .cls-7{fill:none;stroke:#2b398e;stroke-linecap:round;stroke-linejoin:round;stroke-width:3px;}</style></defs><title>2</title>
<g id="Layer_2" data-name="Layer 2"><g id="_3" data-name="3"><path class="cls-1" d="M35,70A35,35,0,0,1,0,35a35.76,35.76,0,0,1,.85-7.73h0a35,35,0,0,1,19-23.83h0A33.5,33.5,0,0,1,28.3.65,34.36,34.36,0,0,1,35,0,34.87,34.87,0,0,1,59.75,10.25a36.21,36.21,0,0,1,3.72,4.37A35,35,0,0,1,36.43,70C36,70,35.48,70,35,70Z"></path><path class="cls-1" d="M55.8,56.25A29.61,29.61,0,1,0,8.9,49.58a29.92,29.92,0,0,0,5,6.67,29.67,29.67,0,0,0,41.9,0Z"></path><path class="cls-1" d="M55.8,56.25a29.65,29.65,0,0,0,0-41.9,29.15,29.15,0,0,0-5.08-4c3.94,3,8.45,9.18,5.14,21.46-4,15-19.07,26-18.4,33A29.54,29.54,0,0,0,55.8,56.25Z"></path><path class="cls-2" d="M23.63,58.34c-1.19-7.49-3.59-14,.38-23.15C27.66,26.79,38.28,7.51,21.27,9A29.64,29.64,0,0,0,8.9,49.58a29.92,29.92,0,0,0,5,6.67A29.61,29.61,0,0,0,22.1,62C23.27,62.13,24.11,61.32,23.63,58.34Z"></path><path class="cls-3" d="M8.2,35.88a1.07,1.07,0,0,0-1.07-1.07h0a1.07,1.07,0,0,0,0,2.13h0A1.06,1.06,0,0,0,8.2,35.88Z"></path><path class="cls-3" d="M29.93,14.26a1.07,1.07,0,0,0-2.13,0,1.07,1.07,0,1,0,2.13,0Z"></path><path class="cls-3" d="M24.37,14.26a1.07,1.07,0,1,0-1.07,1.07A1.06,1.06,0,0,0,24.37,14.26Z"></path><circle class="cls-3" cx="23.3" cy="19.69" r="1.07"></circle><path class="cls-3" d="M18.87,14.26a1.07,1.07,0,1,0-1.07,1.07A1.06,1.06,0,0,0,18.87,14.26Z"></path><circle class="cls-3" cx="17.8" cy="19.69" r="1.07"></circle><path class="cls-3" d="M18.87,25A1.07,1.07,0,1,0,17.8,26.1,1.07,1.07,0,0,0,18.87,25Z"></path><path class="cls-3" d="M18.87,30.69a1.07,1.07,0,1,0-1.07,1.06A1.07,1.07,0,0,0,18.87,30.69Z"></path><path class="cls-3" d="M13.52,19.69a1.07,1.07,0,1,0-1.06,1.06A1.06,1.06,0,0,0,13.52,19.69Z"></path><path class="cls-3" d="M13.52,25a1.07,1.07,0,1,0-1.06,1.07A1.06,1.06,0,0,0,13.52,25Z"></path><path class="cls-3" d="M13.52,30.69a1.07,1.07,0,1,0-1.06,1.06A1.06,1.06,0,0,0,13.52,30.69Z"></path><path class="cls-3" d="M8.17,30.69a1.07,1.07,0,1,0-2.13,0,1.07,1.07,0,0,0,2.13,0Z"></path><path class="cls-3" d="M24.37,35.88a1.07,1.07,0,0,0-1.07-1.07h-.06a1.07,1.07,0,1,0,0,2.13h.06A1.06,1.06,0,0,0,24.37,35.88Z"></path><path class="cls-3" d="M18.87,35.88a1.07,1.07,0,0,0-1.07-1.07h0a1.07,1.07,0,1,0,0,2.13h0A1.06,1.06,0,0,0,18.87,35.88Z"></path><path class="cls-3" d="M18.87,41.15a1.07,1.07,0,1,0-1.07,1.06A1.07,1.07,0,0,0,18.87,41.15Z"></path><path class="cls-3" d="M18.87,46.57a1.07,1.07,0,1,0-1.07,1.07A1.07,1.07,0,0,0,18.87,46.57Z"></path><path class="cls-3" d="M18.87,51.92A1.07,1.07,0,1,0,17.8,53,1.07,1.07,0,0,0,18.87,51.92Z"></path><circle class="cls-3" cx="17.8" cy="57.57" r="1.07"></circle><path class="cls-3" d="M13.52,35.88a1.06,1.06,0,0,0-1.06-1.07h0a1.07,1.07,0,1,0,0,2.13h0A1.05,1.05,0,0,0,13.52,35.88Z"></path><path class="cls-3" d="M13.52,41.15a1.07,1.07,0,1,0-1.06,1.06A1.06,1.06,0,0,0,13.52,41.15Z"></path><path class="cls-3" d="M13.52,46.57a1.07,1.07,0,1,0-1.06,1.07A1.06,1.06,0,0,0,13.52,46.57Z"></path><path class="cls-3" d="M13.52,51.92A1.07,1.07,0,1,0,12.46,53,1.06,1.06,0,0,0,13.52,51.92Z"></path><path class="cls-1" d="M41,37.6a1.05,1.05,0,0,0-.36-1.46h0A1.07,1.07,0,1,0,39.53,38h0A1.06,1.06,0,0,0,41,37.6Z"></path><path class="cls-1" d="M57.54,41.52a1.07,1.07,0,1,0-1.47.36A1.08,1.08,0,0,0,57.54,41.52Z"></path><path class="cls-1" d="M55.76,33.83a1.07,1.07,0,1,0-1.47.36A1.06,1.06,0,0,0,55.76,33.83Z"></path><path class="cls-1" d="M52.83,38.68a1.08,1.08,0,0,0-.36-1.47,1.07,1.07,0,1,0,.36,1.47Z"></path><path class="cls-1" d="M54,26.49a1.07,1.07,0,0,0-1.83-1.1A1.07,1.07,0,1,0,54,26.49Z"></path><path class="cls-1" d="M51.18,31.07a1.06,1.06,0,1,0-1.46.36A1.06,1.06,0,0,0,51.18,31.07Z"></path><path class="cls-1" d="M48.26,35.91a1.07,1.07,0,1,0-1.47.36A1.07,1.07,0,0,0,48.26,35.91Z"></path><path class="cls-1" d="M43.67,33.14a1.05,1.05,0,0,0-.36-1.46,1.06,1.06,0,1,0-1.1,1.82A1.05,1.05,0,0,0,43.67,33.14Z"></path><path class="cls-1" d="M54.85,46a1.05,1.05,0,0,0-.36-1.46l0,0h0a1.06,1.06,0,1,0-1.1,1.82h0l0,0A1.05,1.05,0,0,0,54.85,46Z"></path><path class="cls-1" d="M52.13,50.47a1.07,1.07,0,1,0-1.46.36A1.07,1.07,0,0,0,52.13,50.47Z"></path><path class="cls-2" d="M62.3,44.4a1.07,1.07,0,1,0-1.46.36A1.07,1.07,0,0,0,62.3,44.4Z"></path><circle class="cls-2" cx="62.31" cy="31.55" r="1.07"></circle><path class="cls-2" d="M61.25,37.84a1.07,1.07,0,1,0-1.47.36A1.08,1.08,0,0,0,61.25,37.84Z"></path><path class="cls-2" d="M61.32,24.62a1.07,1.07,0,1,0-1.46.36A1.06,1.06,0,0,0,61.32,24.62Z"></path><circle class="cls-2" cx="58.13" cy="29.64" r="1.07"></circle><path class="cls-2" d="M59.62,48.84a1.07,1.07,0,1,0-1.47.36A1.07,1.07,0,0,0,59.62,48.84Z"></path><path class="cls-2" d="M56.89,53.35a1.06,1.06,0,1,0-1.46.36A1.07,1.07,0,0,0,56.89,53.35Z"></path><path class="cls-2" d="M52.26,56.91a1.07,1.07,0,1,0-1.47.36A1.08,1.08,0,0,0,52.26,56.91Z"></path><path class="cls-2" d="M47.31,55.45a1.07,1.07,0,1,0-1.47.36A1.06,1.06,0,0,0,47.31,55.45Z"></path><path class="cls-2" d="M46.22,61.18a1.05,1.05,0,0,0-.36-1.46,1.07,1.07,0,1,0,.36,1.46Z"></path><path class="cls-1" d="M50.15,43.12a1.08,1.08,0,0,0-.36-1.47h0a1.05,1.05,0,0,0-1.46.36,1.07,1.07,0,0,0,.36,1.46h0A1.08,1.08,0,0,0,50.15,43.12Z"></path><path class="cls-1" d="M47.42,47.63A1.07,1.07,0,1,0,46,48,1.06,1.06,0,0,0,47.42,47.63Z"></path><path class="cls-1" d="M44.62,52.27a1.07,1.07,0,1,0-1.47.36A1.08,1.08,0,0,0,44.62,52.27Z"></path><path class="cls-1" d="M41.85,56.84a1.05,1.05,0,0,0-.36-1.46,1.07,1.07,0,1,0,.36,1.46Z"></path><path class="cls-1" d="M45.57,40.35a1.05,1.05,0,0,0-.36-1.46h0a1.05,1.05,0,0,0-1.46.36,1.07,1.07,0,0,0,.36,1.46h0A1.06,1.06,0,0,0,45.57,40.35Z"></path><path class="cls-1" d="M42.85,44.86a1.07,1.07,0,0,0-.36-1.46,1.07,1.07,0,1,0,.36,1.46Z"></path><path class="cls-1" d="M40,49.51a1.07,1.07,0,1,0-1.46.36A1.06,1.06,0,0,0,40,49.51Z"></path><path class="cls-1" d="M37.28,54.08a1.07,1.07,0,1,0-1.46.36A1.05,1.05,0,0,0,37.28,54.08Z"></path><path class="cls-4" d="M8.9,49.58A29.38,29.38,0,0,1,5.3,37.2c0-.63-.06-1.26-.06-1.9s0-1.13,0-1.69A29.24,29.24,0,0,1,8.83,21.14a26.94,26.94,0,0,1,4,12.47c0,.59.06,1.2.06,1.8s0,1.2,0,1.79A27.39,27.39,0,0,1,8.9,49.58Z"></path><path class="cls-5" d="M36.74,58.74c3,0,5.71-2,7.24-5a2.4,2.4,0,0,1,2.17-1.24h0c6.35,0,11.5-6,11.5-13.52a15.22,15.22,0,0,0-1.8-7.26,5.73,5.73,0,0,1-.69-3.09c0-.29,0-.58,0-.87,0-7.46-5.15-13.52-11.5-13.52a9.61,9.61,0,0,0-2.34.29,11.47,11.47,0,0,1-6.44,0,8.05,8.05,0,0,0-2.54-.42c-6,0-10.87,6.78-10.87,15.15A19.91,19.91,0,0,0,22.66,36a15.4,15.4,0,0,1,.93,5.3v0c0,9.59,4.87,17.37,10.88,17.37a7.44,7.44,0,0,0,1.15-.1A6.86,6.86,0,0,0,36.74,58.74Z"></path><path class="cls-5" d="M35.62,58.63a6.31,6.31,0,0,1-1.15.11,8.49,8.49,0,0,1-6.37-3.29c-2.73-3.16-4.51-8.3-4.51-14.08v0a15.69,15.69,0,0,0-.93-5.3,19.67,19.67,0,0,1-1.16-6.77c0-8.37,4.87-15.15,10.87-15.15a7.78,7.78,0,0,1,2.54.42,10,10,0,0,0,4.42.4,15.28,15.28,0,0,0,2-.37,9.63,9.63,0,0,1,2.35-.29c6.34,0,11.49,6.06,11.49,13.53,0,.28,0,.57,0,.86a5.76,5.76,0,0,0,.7,3.09A15.19,15.19,0,0,1,57.66,39c0,7.46-5.15,13.52-11.5,13.52h0A2.42,2.42,0,0,0,44,53.78c-1.52,3-4.19,5-7.23,5A5.91,5.91,0,0,1,35.62,58.63Z"></path><path class="cls-5" d="M35.62,58.63a6.31,6.31,0,0,1-1.15.11,8.49,8.49,0,0,1-6.37-3.29c-2.73-3.16-4.51-8.3-4.51-14.08v0a15.69,15.69,0,0,0-.93-5.3,19.67,19.67,0,0,1-1.16-6.77c0-8.37,4.87-15.15,10.87-15.15a7.78,7.78,0,0,1,2.54.42,10,10,0,0,0,4.42.4,15.28,15.28,0,0,0,2-.37,9.63,9.63,0,0,1,2.35-.29c5.9,0,10.77,5.25,11.41,12a15,15,0,0,1,.08,1.52,2.17,2.17,0,0,1,0,.26c0,.2,0,.4,0,.6a7.67,7.67,0,0,0,0,.83,5.81,5.81,0,0,0,.68,2.26A15.19,15.19,0,0,1,57.66,39c0,7.46-5.15,13.52-11.5,13.52h0A2.42,2.42,0,0,0,44,53.78l-.19.37a8.25,8.25,0,0,1-7,4.59A5.91,5.91,0,0,1,35.62,58.63Z"></path><path class="cls-6" d="M29.45,55.27a1.81,1.81,0,0,1-2-.66,22.68,22.68,0,0,1-3.84-13.24v0a15.69,15.69,0,0,0-.93-5.3,19.67,19.67,0,0,1-1.16-6.77c0-8.37,4.87-15.15,10.87-15.15a7.78,7.78,0,0,1,2.54.42l0,0a1.83,1.83,0,0,1,.91,2.86c-1.14,1.48-2,3.73-2,7.15-.16,10.16,6,23.18-1.05,28.71A11.4,11.4,0,0,1,29.45,55.27Z"></path><path class="cls-6" d="M46.22,42.07c3.34-8,8.55-7.48,9-12.57a5.81,5.81,0,0,0,.68,2.26A15.19,15.19,0,0,1,57.66,39c0,7.46-5.15,13.52-11.5,13.52h0C45.25,52.54,44.11,47.13,46.22,42.07Z"></path><path class="cls-4" d="M35,17.83a17,17,0,1,1-17,17,17,17,0,0,1,17-17m0-3a20,20,0,1,0,20,20,20,20,0,0,0-20-20Z"></path><path class="cls-7" d="M22.9,34.83c0-.73,2.25-1.24,2.39-1.93s-1.74-2-1.47-2.7,2.55-.27,2.95-.87-.83-2.54-.33-3,2.46.72,3.06.32.2-2.67.87-3,2,1.61,2.7,1.47,1.2-2.39,1.93-2.39"></path><path class="cls-7" d="M47.1,34.83c0,.74-2.25,1.24-2.39,1.94s1.74,2,1.47,2.7-2.55.27-3,.86.83,2.55.33,3.06-2.46-.72-3.06-.32-.2,2.67-.87,2.94-2-1.61-2.7-1.47-1.2,2.39-1.93,2.39"></path><path class="cls-7" d="M31,30.83h2a2,2,0,0,1,2,2v3a2,2,0,0,0,2,2h2"></path><path class="cls-7" d="M31.5,38.33v-2a2,2,0,0,1,2-2h3a2,2,0,0,0,2-2v-2"></path></g></g></svg>
