<svg xmlns="http://www.w3.org/2000/svg" viewBox="0 0 70 70" class="process4"><defs><style>.process4 .cls-1{fill:#fff;}.process4 .cls-2{opacity:0.26;}.process4 .cls-3{fill:#f9bc6c;}.process4 .cls-4{fill:#4fd4ab;}.process4 .cls-5{fill:#de374f;}.process4 .cls-6{fill:none;stroke:#2b398e;stroke-miterlimit:10;stroke-width:3px;}</style></defs><title>4</title>
<g id="Layer_2" data-name="Layer 2"><g id="_2" data-name="2"><path class="cls-1" d="M70,35A35,35,0,0,1,35,70a35.76,35.76,0,0,1-7.73-.85h0a35,35,0,0,1-23.83-19h0A33.5,33.5,0,0,1,.65,41.7,34.36,34.36,0,0,1,0,35,34.87,34.87,0,0,1,10.25,10.25a36.21,36.21,0,0,1,4.37-3.72A35,35,0,0,1,70,33.57C70,34.05,70,34.52,70,35Z"></path><g class="cls-2"><path class="cls-1" d="M36.41,64.88a29.59,29.59,0,0,0,28-28.14h0c0-.48,0-1,0-1.44a29.44,29.44,0,0,0-.64-6.13c-.14-.68-.31-1.36-.5-2A29.83,29.83,0,0,0,55.8,14.35,29.64,29.64,0,0,0,11.4,17.2a28.65,28.65,0,0,0-3.24,5.24c-.26.55-.51,1.1-.74,1.67A30.25,30.25,0,0,0,5.5,31.3a29.84,29.84,0,0,0,8.4,25,29.65,29.65,0,0,0,10.87,6.91h0a29.44,29.44,0,0,0,10.07,1.75Q35.63,64.91,36.41,64.88Z"></path></g><path class="cls-3" d="M32.76,30.66c-8-6-13.42-13-21.36-13.46A29.62,29.62,0,0,1,25.16,7.31c.68-.24,1.36-.45,2.07-.64A29.36,29.36,0,0,1,31,5.94c.48-.07,1-.12,1.46-.16.78-.06,1.58-.1,2.38-.1s1.3,0,1.94.07h0c.4,0,.81.06,1.2.1h0a29.87,29.87,0,0,1,4.14.74c.71.18,1.41.38,2.1.61A29.57,29.57,0,0,1,60.16,19.91a22.88,22.88,0,0,0-7.36,1.18C45.17,23.79,40.88,36.74,32.76,30.66Z"></path><path class="cls-4" d="M36.41,64.88a32.25,32.25,0,0,1,2.33-10c2.69-6.73,7.33-7.93,11.67-11.67S55.49,32,61.18,33.65a4.77,4.77,0,0,1,3.25,3.08h0a28.14,28.14,0,0,1-.63,4.8,14.91,14.91,0,0,1-.39,1.6c-.27,1-.58,1.93-.93,2.86-.25.63-.51,1.23-.78,1.83a30.1,30.1,0,0,1-5.9,8.41,29.66,29.66,0,0,1-7.52,5.47c-.53.27-1.07.52-1.63.75A29.27,29.27,0,0,1,36.41,64.88Z"></path><path class="cls-5" d="M24.78,63.16h0A29.59,29.59,0,0,1,5.24,35.3a29.32,29.32,0,0,1,.26-4,7.55,7.55,0,0,1,6.62,2.05c4.18,3.9,4.93,5.84,11.51,9s8.08,8.83,6,15.7A7,7,0,0,1,24.78,63.16Z"></path><path class="cls-1" d="M43.25,24.81a1.12,1.12,0,1,0-1.12-1.12A1.12,1.12,0,0,0,43.25,24.81Z"></path><path class="cls-1" d="M54.53,19.05a1.12,1.12,0,1,0-1.12-1.12A1.12,1.12,0,0,0,54.53,19.05Z"></path><path class="cls-1" d="M48.85,19.05a1.12,1.12,0,1,0-1.12-1.12A1.12,1.12,0,0,0,48.85,19.05Z"></path><path class="cls-1" d="M43.41,19.05a1.12,1.12,0,1,0-1.11-1.12A1.12,1.12,0,0,0,43.41,19.05Z"></path><path class="cls-1" d="M48.85,13.45a1.12,1.12,0,1,0-1.12-1.12A1.12,1.12,0,0,0,48.85,13.45Z"></path><path class="cls-1" d="M43.41,13.45a1.12,1.12,0,1,0-1.11-1.12A1.12,1.12,0,0,0,43.41,13.45Z"></path><path class="cls-1" d="M43.24,7.84a1.12,1.12,0,0,1-1.11-1.12.32.32,0,0,1,0-.13c.86.22,1.55.43,2.1.61A1.1,1.1,0,0,1,43.24,7.84Z"></path><path class="cls-1" d="M35,29.58a1.12,1.12,0,1,0-1.11-1.12A1.12,1.12,0,0,0,35,29.58Z"></path><path class="cls-1" d="M40.05,29.13A1.12,1.12,0,1,0,38.93,28,1.12,1.12,0,0,0,40.05,29.13Z"></path><path class="cls-1" d="M37.32,24.81a1.12,1.12,0,1,0-1.12-1.12A1.12,1.12,0,0,0,37.32,24.81Z"></path><path class="cls-1" d="M31.8,24.81h.08A1.12,1.12,0,0,0,33,23.69s0,0,0,0,0,0,0,0a1.12,1.12,0,0,0-1.12-1.12,1.1,1.1,0,0,0-.8.35,1.09,1.09,0,0,0-.4.83A1.12,1.12,0,0,0,31.8,24.81Z"></path><path class="cls-1" d="M27,24.78a1.12,1.12,0,1,0-1.12-1.11A1.11,1.11,0,0,0,27,24.78Z"></path><path class="cls-1" d="M37.49,19.05a1.12,1.12,0,1,0-1.12-1.12A1.12,1.12,0,0,0,37.49,19.05Z"></path><path class="cls-1" d="M31.8,19.05h.08A1.12,1.12,0,0,0,33,17.93v0h0a1.12,1.12,0,0,0-1.12-1.12,1.14,1.14,0,0,0-.48.12,1.11,1.11,0,0,0-.72,1A1.12,1.12,0,0,0,31.8,19.05Z"></path><path class="cls-1" d="M26.12,19.05A1.12,1.12,0,1,0,25,17.93,1.12,1.12,0,0,0,26.12,19.05Z"></path><path class="cls-1" d="M20.52,19.05a1.12,1.12,0,1,0-1.12-1.12A1.12,1.12,0,0,0,20.52,19.05Z"></path><path class="cls-1" d="M37.49,13.45a1.12,1.12,0,1,0-1.12-1.12A1.12,1.12,0,0,0,37.49,13.45Z"></path><path class="cls-1" d="M32,13.45h.08a1.12,1.12,0,0,0,1.12-1.12h0a1.12,1.12,0,0,0-1.12-1.12H32a1.12,1.12,0,1,0,0,2.23Z"></path><path class="cls-1" d="M26.29,13.45a1.12,1.12,0,1,0-1.12-1.12A1.12,1.12,0,0,0,26.29,13.45Z"></path><path class="cls-1" d="M20.69,13.45a1.12,1.12,0,1,0-1.12-1.12A1.12,1.12,0,0,0,20.69,13.45Z"></path><path class="cls-1" d="M16.53,16.44a1.12,1.12,0,1,0-1.11-1.11A1.12,1.12,0,0,0,16.53,16.44Z"></path><path class="cls-1" d="M37.49,7.84a1.12,1.12,0,0,1-1.12-1.12,1.1,1.1,0,0,1,.59-1h0c.4,0,.8.06,1.2.1h0a1.1,1.1,0,0,1,.42.87A1.11,1.11,0,0,1,37.49,7.84Z"></path><path class="cls-1" d="M32.05,7.87a1.28,1.28,0,0,1-.47-.1,1.13,1.13,0,0,1-.73-1,1.1,1.1,0,0,1,.33-.78c.48-.07,1-.12,1.46-.16a1.11,1.11,0,0,1,.53.94s0,0,0,0h0A1.12,1.12,0,0,1,32.05,7.87Z"></path><path class="cls-1" d="M26.29,7.84a1.11,1.11,0,0,1-1-.53c.68-.24,1.36-.45,2.07-.64v0A1.11,1.11,0,0,1,26.29,7.84Z"></path><path class="cls-1" d="M43.67,62.49a1,1,0,0,0-1-1h0a1,1,0,0,0,0,2h0A1,1,0,0,0,43.67,62.49Z"></path><circle class="cls-1" cx="63.06" cy="37.26" r="1"></circle><path class="cls-1" d="M63.07,43.21a1,1,0,1,1,0-2,1,1,0,0,1,.73.35c-.11.53-.23,1.06-.39,1.59A.83.83,0,0,1,63.07,43.21Z"></path><circle class="cls-1" cx="57.84" cy="37.26" r="1"></circle><circle class="cls-1" cx="59.07" cy="42.04" r="1"></circle><circle class="cls-1" cx="57.84" cy="47.3" r="1"></circle><circle class="cls-1" cx="53.74" cy="42.86" r="1"></circle><path class="cls-1" d="M61.7,47.83a1,1,0,0,1-.65-.93,1,1,0,0,1,1-1,1.08,1.08,0,0,1,.43.1C62.23,46.63,62,47.23,61.7,47.83Z"></path><circle class="cls-1" cx="56.89" cy="51.86" r="1"></circle><circle class="cls-1" cx="52.68" cy="47.3" r="1"></circle><circle class="cls-1" cx="52.68" cy="52.31" r="1"></circle><circle class="cls-1" cx="48.53" cy="48.11" r="1"></circle><circle class="cls-1" cx="52.68" cy="57.62" r="1"></circle><circle class="cls-1" cx="47.66" cy="52.31" r="1"></circle><circle class="cls-1" cx="47.66" cy="57.62" r="1"></circle><path class="cls-1" d="M46.65,62.46a1,1,0,0,1,1-1h0a1,1,0,0,1,.61.21C47.75,62,47.21,62.23,46.65,62.46Z"></path><circle class="cls-1" cx="42.64" cy="52.31" r="1"></circle><circle class="cls-1" cx="42.64" cy="57.62" r="1"></circle><circle class="cls-3" cx="26.25" cy="50.42" r="1.59"></circle><circle class="cls-3" cx="19.6" cy="45.35" r="1.59"></circle><circle class="cls-3" cx="20.52" cy="54.54" r="1.59"></circle><path class="cls-3" d="M28,58a1.6,1.6,0,0,0-1.59-1.6h-.09a1.6,1.6,0,0,0,0,3.19h.09A1.59,1.59,0,0,0,28,58Z"></path><circle class="cls-3" cx="12.32" cy="44.74" r="1.59"></circle><circle class="cls-3" cx="14.85" cy="52.14" r="1.59"></circle><circle class="cls-3" cx="9.3" cy="36.97" r="1.59"></circle><rect class="cls-6" x="19.85" y="38.54" width="13" height="13" rx="1" ry="1"></rect><rect class="cls-6" x="36.85" y="38.54" width="13" height="13" rx="1" ry="1"></rect><rect class="cls-6" x="23.35" y="20.04" width="13" height="13" rx="1" ry="1" transform="translate(47.29 -9.4) rotate(74.24)"></rect></g></g></svg>
