<svg xmlns="http://www.w3.org/2000/svg" viewBox="0 0 70 70" class="process1"><defs><style>.process1 .cls-1{fill:#fff;}.process1 .cls-2{fill:#f9bc6c;}.process1 .cls-3{fill:#5259a6;}.process1 .cls-4{fill:#4fd4ab;}.process1 .cls-5{fill:none;stroke:#de374f;stroke-linecap:round;stroke-miterlimit:10;stroke-width:3px;}</style></defs><title>1</title>
<g id="Layer_2" data-name="Layer 2"><g id="_1" data-name="1"><path class="cls-1" d="M70,35A35,35,0,0,1,35,70a35.76,35.76,0,0,1-7.73-.85h0a35,35,0,0,1-23.83-19h0A33.5,33.5,0,0,1,.65,41.7,34.36,34.36,0,0,1,0,35,34.87,34.87,0,0,1,10.25,10.25a36.21,36.21,0,0,1,4.37-3.72A35,35,0,0,1,70,33.57C70,34.05,70,34.52,70,35Z"></path><path class="cls-1" d="M62.85,24.26a28.62,28.62,0,0,0-2.27-4.53h0a1.23,1.23,0,0,0-.14-.25h0a27.58,27.58,0,0,0-3.54-4.58,3.08,3.08,0,0,0-.25-.27l-.39-.42A29.62,29.62,0,0,0,5.8,32.56v0c-.08.85-.12,1.69-.12,2.56s0,1.75.12,2.61.15,1.45.27,2.15c.06.42.14.84.22,1.24.13.6.26,1.2.43,1.78s.35,1.19.54,1.78A29.66,29.66,0,0,0,23.57,62.35c.26.12.53.23.8.33a29.24,29.24,0,0,0,8.07,1.95h0c.94.09,1.88.13,2.85.13a29.44,29.44,0,0,0,17.5-5.71,31.39,31.39,0,0,0,3.45-2.95,29.66,29.66,0,0,0,7.94-14.4s0,0,0,0a30,30,0,0,0,.72-6.54v-.31h0A29.42,29.42,0,0,0,62.85,24.26Z"></path><path class="cls-2" d="M61.41,21.15c.13.25.25.51.38.77a17.76,17.76,0,0,0-1.72-3.07c-.22-.33-.45-.64-.68-.93a28.76,28.76,0,0,1,2,3.18Z"></path><path class="cls-1" d="M59.39,17.92C49.71,5.52,39.25,27.15,31.58,37s-21.14,9.92-25.2,4.56a29.73,29.73,0,0,1-.46-10.14A29.4,29.4,0,0,1,7,26.33,29.85,29.85,0,0,1,9.7,20.24q.42-.73.9-1.44a17.18,17.18,0,0,1,1.13-1.56,29.38,29.38,0,0,1,16-10.73l1.2-.28a28.27,28.27,0,0,1,7.29-.67c.76,0,1.51.07,2.24.14l.23,0a27.65,27.65,0,0,1,4.35.85c.54.14,1.06.29,1.57.46l1.14.41a29.51,29.51,0,0,1,4.36,2.07,28.08,28.08,0,0,1,3,2c.32.24.64.49.93.74A29.24,29.24,0,0,1,59.39,17.92Z"></path><path class="cls-1" d="M64.92,35.18a27.69,27.69,0,0,1-.14,2.89A29.55,29.55,0,0,1,42.85,63.79a33.8,33.8,0,0,1-3.63.73h0a29.39,29.39,0,0,1-13.36-1.28c11.72-5.45,15.66-24.14,18.28-26.44,3.32-2.89,22.47-3.51,17.65-14.87a30.13,30.13,0,0,1,2.14,5.68A29.67,29.67,0,0,1,64.92,35.18Z"></path><path class="cls-2" d="M61.79,21.92c-.13-.26-.25-.52-.38-.77l0,0a28.76,28.76,0,0,0-2-3.18C49.71,5.52,39.25,27.15,31.58,37A20.73,20.73,0,0,1,16,45.17L12,53.4l.08.11a29.62,29.62,0,0,0,8.34,7.24,9,9,0,0,0,10.73-1.23C38.86,52,42,38.71,44.14,36.79,47.46,33.9,66.61,33.28,61.79,21.92Z"></path><path class="cls-3" d="M38.47,5.7A55.72,55.72,0,0,1,5.92,31.44,29.4,29.4,0,0,1,7,26.33,29.85,29.85,0,0,1,9.7,20.24q.42-.73.9-1.44a17.18,17.18,0,0,1,1.13-1.56,29.38,29.38,0,0,1,16-10.73l1.2-.28a28.27,28.27,0,0,1,7.29-.67C37,5.57,37.74,5.63,38.47,5.7Z"></path><path class="cls-4" d="M39.24,20.1C38.51,14.94,34,9.59,30,9.85a3.21,3.21,0,0,0-1.51.48,4.88,4.88,0,0,0-1.18.94c-4,3.93-5.42,0-9.88,4.44S16,21.43,13.18,24.4a8.52,8.52,0,0,0-2.06,3.7,6,6,0,0,0-.26,1,8.69,8.69,0,0,0,4.9,8.6c1.27.49,2.74.36,5.69.11A42,42,0,0,0,27.2,37C35.39,33.54,40.15,26.48,39.24,20.1Z"></path><path class="cls-3" d="M64.78,38.07a29.67,29.67,0,0,1-18.9,24.75C47,57.79,50.4,42,64.78,38.07Z"></path><circle class="cls-3" cx="42.44" cy="11.94" r="1.98"></circle><circle class="cls-3" cx="39.15" cy="60.31" r="1.98"></circle><path class="cls-2" d="M12.42,53.94a7.38,7.38,0,0,1-1.93-6.1c.64-3.55,4-2.67,5.6-2.67s1.76,3.24,1.09,4.47S12.42,53.94,12.42,53.94Z"></path><path class="cls-5" d="M43,20h5.12A1.88,1.88,0,0,1,50,21.88V28"></path><path class="cls-5" d="M20,28V21.88A1.88,1.88,0,0,1,21.88,20H28"></path><path class="cls-5" d="M28,50H21.88A1.88,1.88,0,0,1,20,48.12V43"></path><path class="cls-5" d="M50,43v5.12A1.88,1.88,0,0,1,48.12,50H43"></path><line class="cls-5" x1="20" y1="35" x2="50" y2="35"></line></g></g></svg>
